<?xml version="1.0" encoding="utf-8"?>
<!-- Generator: Adobe Illustrator 24.0.2, SVG Export Plug-In . SVG Version: 6.00 Build 0)  -->
<svg version="1.1" id="Capa_1" xmlns="http://www.w3.org/2000/svg" xmlns:xlink="http://www.w3.org/1999/xlink" x="0px" y="0px"
	 viewBox="0 0 165 70" style="enable-background:new 0 0 165 70;" xml:space="preserve">
<style type="text/css">
	.st0{fill:#081521;}
	.st1{fill:url(#SVGID_1_);}
</style>
<g>
	<g>
		<path class="st0" d="M92.1,35.2h-6.7v6.7h-1.2V27.6h8.9v1h-7.7v5.6h6.7V35.2z"/>
		<path class="st0" d="M106.8,35.6c0,1.3-0.2,2.5-0.7,3.5c-0.5,1-1.1,1.8-1.9,2.3c-0.8,0.5-1.8,0.8-2.9,0.8c-1.7,0-3-0.6-4-1.8
			c-1-1.2-1.5-2.8-1.5-4.8V34c0-1.3,0.2-2.5,0.7-3.5c0.5-1,1.1-1.8,2-2.3c0.8-0.5,1.8-0.8,2.9-0.8c1.1,0,2.1,0.3,2.9,0.8
			c0.8,0.5,1.5,1.3,1.9,2.2c0.5,1,0.7,2.1,0.7,3.4V35.6z M105.6,34c0-1.7-0.4-3.1-1.2-4c-0.8-1-1.8-1.5-3.2-1.5
			c-1.3,0-2.4,0.5-3.2,1.5c-0.8,1-1.2,2.3-1.2,4.1v1.5c0,1.7,0.4,3,1.2,4c0.8,1,1.9,1.5,3.2,1.5c1.4,0,2.4-0.5,3.2-1.5
			c0.8-1,1.1-2.3,1.1-4.1V34z"/>
		<path class="st0" d="M121.2,41.9H120l-8.2-12.2v12.2h-1.2V27.6h1.2l8.2,12.2V27.6h1.2V41.9z"/>
		<path class="st0" d="M125.6,41.9V27.6h4c1.2,0,2.2,0.3,3.2,0.8c0.9,0.5,1.7,1.3,2.2,2.3c0.5,1,0.8,2.1,0.8,3.4v1.3
			c0,1.3-0.3,2.4-0.8,3.4c-0.5,1-1.2,1.8-2.2,2.3c-0.9,0.5-2,0.8-3.2,0.8H125.6z M126.8,28.7v12.3h2.7c1.5,0,2.7-0.5,3.6-1.5
			c0.9-1,1.4-2.4,1.4-4.1v-1.3c0-1.6-0.4-3-1.3-4c-0.9-1-2.1-1.5-3.5-1.5H126.8z"/>
		<path class="st0" d="M150,35.6c0,1.3-0.2,2.5-0.7,3.5c-0.5,1-1.1,1.8-1.9,2.3c-0.8,0.5-1.8,0.8-2.9,0.8c-1.7,0-3-0.6-4-1.8
			c-1-1.2-1.5-2.8-1.5-4.8V34c0-1.3,0.2-2.5,0.7-3.5c0.5-1,1.1-1.8,2-2.3c0.8-0.5,1.8-0.8,2.9-0.8c1.1,0,2.1,0.3,2.9,0.8
			c0.8,0.5,1.5,1.3,1.9,2.2c0.5,1,0.7,2.1,0.7,3.4V35.6z M148.8,34c0-1.7-0.4-3.1-1.2-4c-0.8-1-1.8-1.5-3.2-1.5
			c-1.3,0-2.4,0.5-3.2,1.5c-0.8,1-1.2,2.3-1.2,4.1v1.5c0,1.7,0.4,3,1.2,4c0.8,1,1.9,1.5,3.2,1.5c1.4,0,2.4-0.5,3.2-1.5
			c0.8-1,1.1-2.3,1.1-4.1V34z"/>
		<path class="st0" d="M161.8,38.4c0-0.8-0.3-1.4-0.8-1.9c-0.6-0.5-1.6-0.9-3.1-1.3c-1.5-0.4-2.6-0.9-3.2-1.4
			c-1-0.7-1.5-1.6-1.5-2.7c0-1.1,0.5-2,1.4-2.7c0.9-0.7,2.1-1,3.5-1c0.9,0,1.8,0.2,2.5,0.5c0.7,0.4,1.3,0.9,1.7,1.5
			c0.4,0.7,0.6,1.4,0.6,2.2h-1.2c0-1-0.3-1.8-1-2.4c-0.7-0.6-1.6-0.9-2.7-0.9c-1.1,0-2,0.2-2.6,0.7c-0.6,0.5-1,1.1-1,1.9
			c0,0.7,0.3,1.3,0.9,1.8c0.6,0.5,1.5,0.9,2.8,1.2c1.3,0.4,2.3,0.7,2.9,1.1c0.7,0.4,1.2,0.8,1.5,1.4c0.3,0.5,0.5,1.1,0.5,1.9
			c0,1.1-0.5,2-1.4,2.7c-0.9,0.7-2.1,1-3.6,1c-1,0-1.9-0.2-2.8-0.5c-0.8-0.4-1.5-0.9-1.9-1.5c-0.4-0.6-0.7-1.4-0.7-2.2h1.2
			c0,1,0.4,1.8,1.1,2.4c0.8,0.6,1.8,0.9,3,0.9c1.1,0,2-0.2,2.7-0.7C161.5,39.9,161.8,39.2,161.8,38.4z"/>
	</g>
	<g>
		<g>
			<path class="st0" d="M26.3,38.5c0-0.5-0.2-1-0.6-1.3c-0.4-0.3-1.1-0.6-2.1-0.9c-1-0.3-1.8-0.6-2.4-1c-1.6-0.9-2.4-2-2.4-3.5
				c0-0.8,0.2-1.4,0.6-2c0.4-0.6,1-1.1,1.8-1.4c0.8-0.3,1.7-0.5,2.7-0.5c1,0,1.9,0.2,2.7,0.5c0.8,0.4,1.4,0.9,1.8,1.5
				c0.4,0.7,0.7,1.4,0.7,2.3h-2.9c0-0.6-0.2-1.1-0.6-1.5c-0.4-0.4-1-0.5-1.7-0.5c-0.7,0-1.3,0.2-1.7,0.5c-0.4,0.3-0.6,0.7-0.6,1.2
				c0,0.5,0.2,0.8,0.7,1.2c0.5,0.3,1.1,0.6,2,0.9c1.7,0.5,2.9,1.1,3.6,1.8c0.8,0.7,1.1,1.7,1.1,2.7c0,1.2-0.5,2.2-1.4,2.9
				c-0.9,0.7-2.2,1-3.7,1c-1.1,0-2.1-0.2-3-0.6c-0.9-0.4-1.6-0.9-2-1.6s-0.7-1.5-0.7-2.4h2.9c0,1.6,0.9,2.3,2.8,2.3
				c0.7,0,1.2-0.1,1.6-0.4C26.1,39.4,26.3,39,26.3,38.5z"/>
			<path class="st0" d="M31.2,42.2V28.1h4.9c1.7,0,3,0.3,3.9,1c0.9,0.7,1.3,1.6,1.3,2.9c0,0.7-0.2,1.3-0.5,1.8
				c-0.4,0.5-0.8,0.9-1.5,1.2c0.7,0.2,1.3,0.5,1.7,1.1c0.4,0.5,0.6,1.2,0.6,2c0,1.4-0.4,2.4-1.3,3.1c-0.9,0.7-2.1,1.1-3.7,1.1H31.2z
				 M34.1,34h2.1c1.5,0,2.2-0.6,2.2-1.8c0-0.6-0.2-1.1-0.6-1.4c-0.4-0.3-1-0.4-1.8-0.4h-2V34z M34.1,36v3.8h2.5
				c0.7,0,1.2-0.2,1.6-0.5c0.4-0.3,0.6-0.8,0.6-1.3c0-1.3-0.7-1.9-2-2H34.1z"/>
			<path class="st0" d="M51.1,38.5c0-0.5-0.2-1-0.6-1.3c-0.4-0.3-1.1-0.6-2.1-0.9c-1-0.3-1.8-0.6-2.4-1c-1.6-0.9-2.4-2-2.4-3.5
				c0-0.8,0.2-1.4,0.6-2c0.4-0.6,1-1.1,1.8-1.4c0.8-0.3,1.7-0.5,2.7-0.5c1,0,1.9,0.2,2.7,0.5c0.8,0.4,1.4,0.9,1.8,1.5
				c0.4,0.7,0.7,1.4,0.7,2.3h-2.9c0-0.6-0.2-1.1-0.6-1.5c-0.4-0.4-1-0.5-1.7-0.5c-0.7,0-1.3,0.2-1.7,0.5c-0.4,0.3-0.6,0.7-0.6,1.2
				c0,0.5,0.2,0.8,0.7,1.2c0.5,0.3,1.1,0.6,2,0.9c1.7,0.5,2.9,1.1,3.6,1.8c0.8,0.7,1.1,1.7,1.1,2.7c0,1.2-0.5,2.2-1.4,2.9
				c-0.9,0.7-2.2,1-3.7,1c-1.1,0-2.1-0.2-3-0.6c-0.9-0.4-1.6-0.9-2-1.6c-0.5-0.7-0.7-1.5-0.7-2.4h2.9c0,1.6,0.9,2.3,2.8,2.3
				c0.7,0,1.2-0.1,1.6-0.4C50.9,39.4,51.1,39,51.1,38.5z"/>
		</g>
		<g>
			<linearGradient id="SVGID_1_" gradientUnits="userSpaceOnUse" x1="12.1342" y1="59.0866" x2="60.3073" y2="10.9135">
				<stop  offset="0" style="stop-color:#A06A28"/>
				<stop  offset="1" style="stop-color:#FDDE8A"/>
			</linearGradient>
			<path class="st1" d="M36.2,0.9v5.9c7.5,0,14.6,2.9,19.9,8.3s8.3,12.4,8.3,19.9s-2.9,14.6-8.3,19.9s-12.4,8.3-19.9,8.3
				c-7.5,0-14.6-2.9-19.9-8.3S8.1,42.5,8.1,35s2.9-14.6,8.3-19.9c5.3-5.3,12.4-8.3,19.9-8.3V0.9 M36.2,0.9C17.4,0.9,2.2,16.2,2.2,35
				s15.3,34.1,34.1,34.1S70.3,53.8,70.3,35C70.3,16.2,55,0.9,36.2,0.9L36.2,0.9z"/>
		</g>
	</g>
</g>
</svg>
